<?xml version="1.0" encoding="UTF-8"?>
<svg width="220" height="220" viewBox="0 0 220 220" fill="none" xmlns="http://www.w3.org/2000/svg" aria-labelledby="title desc" role="img">
  <title id="title">Digital Sewa Logo</title>
  <desc id="desc">A modern DS monogram inside a rounded hexagon with digital nodes, representing Digital Sewa</desc>
  <defs>
    <linearGradient id="g1" x1="0" y1="0" x2="220" y2="220" gradientUnits="userSpaceOnUse">
      <stop offset="0" stop-color="#2563EB"/>
      <stop offset="1" stop-color="#06B6D4"/>
    </linearGradient>
    <filter id="shadow" x="-20%" y="-20%" width="140%" height="140%">
      <feDropShadow dx="0" dy="6" stdDeviation="8" flood-color="#000" flood-opacity="0.15"/>
    </filter>
  </defs>

  <!-- Background rounded hexagon -->
  <g filter="url(#shadow)">
    <path d="M110 10c6.2 0 12.1 1.6 17.3 4.7l52.9 30.6c10.7 6.2 17.3 17.6 17.3 29.9v68.6c0 12.3-6.6 23.7-17.3 29.9l-52.9 30.6c-5.2 3.1-11.1 4.7-17.3 4.7s-12.1-1.6-17.3-4.7L39.8 174c-10.7-6.2-17.3-17.6-17.3-29.9V75.2c0-12.3 6.6-23.7 17.3-29.9l52.9-30.6C97.9 11.6 103.8 10 110 10z" fill="url(#g1)"/>
  </g>

  <!-- Digital nodes -->
  <circle cx="36" cy="86" r="6" fill="#fff" opacity="0.9"/>
  <circle cx="184" cy="132" r="6" fill="#fff" opacity="0.9"/>
  <circle cx="150" cy="38" r="5" fill="#fff" opacity="0.9"/>
  <circle cx="70" cy="184" r="5" fill="#fff" opacity="0.9"/>
  <path d="M36 86 L90 108" stroke="#fff" stroke-opacity="0.7" stroke-width="3" stroke-linecap="round"/>
  <path d="M184 132 L130 110" stroke="#fff" stroke-opacity="0.7" stroke-width="3" stroke-linecap="round"/>
  <path d="M150 38 L130 70" stroke="#fff" stroke-opacity="0.7" stroke-width="3" stroke-linecap="round"/>
  <path d="M70 184 L90 150" stroke="#fff" stroke-opacity="0.7" stroke-width="3" stroke-linecap="round"/>

  <!-- DS Monogram -->
  <g fill="#ffffff">
    <!-- D -->
    <path d="M66 78h34c22 0 36 12.5 36 32.5S122 143 100 143H66V78zm22 17v31h12c12.5 0 20-6.7 20-15.5 0-8.9-7.5-15.5-20-15.5H88z" opacity="0.96"/>
    <!-- S -->
    <path d="M124 88c0-6.6 6.1-12 15.4-12 8.5 0 16.6 3.2 23.6 9.2l-9.2 10.6c-4.4-3.7-9-5.7-13.6-5.7-2.5 0-4 .9-4 .9-1.6 1-2.4 2.2-2.4 3.6 0 2.1 1.6 3.8 6.6 5.3l6.2 1.9c12.4 3.7 18.7 9.9 18.7 19.1 0 6.3-2.6 11.5-7.8 15.5-5 3.9-11.8 6-20.1 6-11.2 0-21.2-3.9-30-11.6l9.8-10.6c6.7 5.3 13.1 8 19.3 8 3.2 0 5.8-.7 7.8-2 2.1-1.3 3.1-3 3.1-4.9 0-2.4-2.1-4.1-6.6-5.5l-6.8-2.1c-6.6-2.1-11-4.3-13.3-6.7-2.9-3.1-4.3-6.7-4.3-10.8z" opacity="0.96"/>
  </g>

  <!-- Label text -->
  <text x="110" y="200" text-anchor="middle" font-family="'Segoe UI', Roboto, Arial" font-size="16" fill="#0b1324" opacity="0.85">DIGITAL SEWA</text>
</svg>
